<svg width="70" height="70" viewBox="0 0 70 70" fill="none" xmlns="http://www.w3.org/2000/svg">
<path d="M60 0H10C4.47715 0 0 4.47715 0 10V60C0 65.5229 4.47715 70 10 70H60C65.5229 70 70 65.5229 70 60V10C70 4.47715 65.5229 0 60 0Z" fill="white"/>
<path d="M12.2 57.325C11.2 57.325 10.1833 56.8833 9.15 56L8.95 57H5.35L8.75 41.1L12.45 40.6L9.45 54.625C9.91667 54.9583 10.3917 55.125 10.875 55.125C11.825 55.125 12.6583 54.575 13.375 53.475C14.1083 52.375 14.675 50.975 15.075 49.275C15.475 47.575 15.675 45.8583 15.675 44.125C15.675 42.4917 15.35 41.3 14.7 40.55C14.0667 39.7833 13.175 39.4 12.025 39.4C10.775 39.4 9.65 39.65 8.65 40.15C7.66667 40.6333 6.89167 41.3333 6.325 42.25C5.75833 43.1667 5.475 44.2417 5.475 45.475C5.475 46.0917 5.53333 46.525 5.65 46.775C5.76667 47.0083 5.825 47.1417 5.825 47.175C4.95833 47.175 4.29167 46.9917 3.825 46.625C3.375 46.2583 3.15 45.6667 3.15 44.85C3.15 43.7167 3.575 42.6417 4.425 41.625C5.275 40.6083 6.40833 39.7917 7.825 39.175C9.25833 38.5583 10.8 38.25 12.45 38.25C14.7333 38.25 16.4167 38.925 17.5 40.275C18.5833 41.625 19.125 43.35 19.125 45.45C19.125 47.35 18.8 49.225 18.15 51.075C17.5167 52.9083 16.6667 54.4083 15.6 55.575C14.5333 56.7417 13.4 57.325 12.2 57.325ZM22.5771 57.15C21.6271 57.15 20.8355 56.825 20.2021 56.175C19.5688 55.525 19.2521 54.5083 19.2521 53.125C19.2521 51.8917 19.4938 50.6 19.9771 49.25C20.4771 47.8833 21.2105 46.7333 22.1771 45.8C23.1605 44.85 24.3271 44.375 25.6771 44.375C26.3605 44.375 26.8688 44.4917 27.2021 44.725C27.5355 44.9583 27.7021 45.2667 27.7021 45.65V45.825L27.9771 44.5H31.5771L29.7771 53C29.7105 53.25 29.6771 53.5167 29.6771 53.8C29.6771 54.5167 30.0188 54.875 30.7021 54.875C31.1688 54.875 31.5688 54.6583 31.9021 54.225C32.2521 53.7917 32.5271 53.225 32.7271 52.525H33.7771C33.1605 54.325 32.3938 55.55 31.4771 56.2C30.5771 56.8333 29.6688 57.15 28.7521 57.15C28.0521 57.15 27.4855 56.9583 27.0521 56.575C26.6355 56.175 26.3855 55.6 26.3021 54.85C25.8188 55.5333 25.2771 56.0917 24.6771 56.525C24.0938 56.9417 23.3938 57.15 22.5771 57.15ZM24.2021 54.725C24.6188 54.725 25.0271 54.5333 25.4271 54.15C25.8438 53.75 26.1271 53.2083 26.2771 52.525L27.4771 46.875C27.4771 46.6583 27.3938 46.45 27.2271 46.25C27.0605 46.0333 26.8021 45.925 26.4521 45.925C25.7855 45.925 25.1855 46.3167 24.6521 47.1C24.1188 47.8667 23.7021 48.8 23.4021 49.9C23.1021 50.9833 22.9521 51.9417 22.9521 52.775C22.9521 53.6083 23.0688 54.1417 23.3021 54.375C23.5521 54.6083 23.8521 54.725 24.2021 54.725ZM35.5863 57.15C34.7863 57.15 34.1113 57 33.5613 56.7C33.0113 56.3833 32.603 55.9833 32.3363 55.5C32.0697 55 31.9363 54.4833 31.9363 53.95C31.9363 53.4 32.0697 52.925 32.3363 52.525C32.5863 52.1083 32.8947 51.8083 33.2613 51.625C33.9113 50.4583 34.478 49.2833 34.9613 48.1C35.4447 46.9 35.903 45.6083 36.3363 44.225L40.0363 43.725C40.1197 45.8583 40.2613 48.1667 40.4613 50.65C40.5447 51.65 40.5863 52.375 40.5863 52.825C40.5863 53.2083 40.553 53.525 40.4863 53.775C41.2697 53.325 41.8697 52.9083 42.2863 52.525H43.3363C42.2697 53.7583 40.9947 54.8 39.5113 55.65C39.028 56.1667 38.428 56.55 37.7113 56.8C37.0113 57.0333 36.303 57.15 35.5863 57.15ZM34.7863 55.175C35.403 55.175 35.9197 54.9917 36.3363 54.625C36.753 54.2583 36.9613 53.6667 36.9613 52.85C36.9613 52.35 36.9113 51.65 36.8113 50.75C36.6447 48.85 36.5363 47.575 36.4863 46.925C36.0863 48.2417 35.4113 49.8167 34.4613 51.65C34.8447 51.85 35.0363 52.1417 35.0363 52.525C35.0363 52.8417 34.928 53.125 34.7113 53.375C34.5113 53.625 34.253 53.75 33.9363 53.75C33.5863 53.75 33.3613 53.6417 33.2613 53.425C33.2613 54.025 33.378 54.4667 33.6113 54.75C33.8613 55.0333 34.253 55.175 34.7863 55.175ZM51.3072 57.15C50.2906 57.15 49.5406 56.8833 49.0572 56.35C48.5906 55.8 48.3572 55.125 48.3572 54.325C48.3572 53.975 48.3989 53.5833 48.4822 53.15C48.5656 52.7 48.6489 52.2667 48.7322 51.85C48.8322 51.4333 48.8989 51.1667 48.9322 51.05C49.0656 50.4667 49.1906 49.8917 49.3072 49.325C49.4239 48.7583 49.4822 48.3 49.4822 47.95C49.4822 47.1 49.1822 46.675 48.5822 46.675C48.1489 46.675 47.7656 46.8917 47.4322 47.325C47.0989 47.7417 46.8322 48.2917 46.6322 48.975L44.9322 57H41.3322L44.9572 40L48.6572 39.5L47.3072 45.8C48.1406 44.8667 49.1156 44.4 50.2322 44.4C51.0822 44.4 51.7572 44.6333 52.2572 45.1C52.7572 45.5667 53.0072 46.275 53.0072 47.225C53.0072 47.7083 52.9489 48.25 52.8322 48.85C52.7156 49.4333 52.5489 50.15 52.3322 51C52.1989 51.5167 52.0739 52.025 51.9572 52.525C51.8572 53.0083 51.8072 53.3917 51.8072 53.675C51.8072 54.0083 51.8822 54.2667 52.0322 54.45C52.1822 54.6333 52.4406 54.725 52.8072 54.725C53.3072 54.725 53.7072 54.55 54.0072 54.2C54.3072 53.8333 54.6072 53.275 54.9072 52.525H55.9572C55.3406 54.3583 54.6239 55.5917 53.8072 56.225C53.0072 56.8417 52.1739 57.15 51.3072 57.15ZM58.8043 63.25C58.021 63.25 57.3293 62.9917 56.7293 62.475C56.146 61.975 55.8543 61.3333 55.8543 60.55C55.8543 59.8167 56.0376 59.2167 56.4043 58.75C56.771 58.2833 57.246 57.9167 57.8293 57.65C58.4126 57.3833 59.196 57.1 60.1793 56.8L60.4293 55.7C59.5793 56.6667 58.5626 57.15 57.3793 57.15C56.5793 57.15 55.9293 56.9 55.4293 56.4C54.946 55.9 54.7043 55.15 54.7043 54.15C54.7043 53.7333 54.771 53.1917 54.9043 52.525L56.6043 44.5H60.2043L58.4043 53C58.3543 53.2 58.3293 53.4083 58.3293 53.625C58.3293 54.3583 58.5793 54.725 59.0793 54.725C59.546 54.725 59.946 54.5333 60.2793 54.15C60.6126 53.75 60.8793 53.2083 61.0793 52.525L62.7793 44.5H66.4043L63.3543 59C63.021 60.6 62.4293 61.7083 61.5793 62.325C60.746 62.9417 59.821 63.25 58.8043 63.25ZM58.2293 61.025C58.5293 61.025 58.8126 60.8667 59.0793 60.55C59.346 60.25 59.5543 59.7583 59.7043 59.075L60.0043 57.6C59.121 57.9 58.4376 58.25 57.9543 58.65C57.471 59.05 57.2293 59.5667 57.2293 60.2C57.2293 60.4 57.3293 60.5833 57.5293 60.75C57.7293 60.9333 57.9626 61.025 58.2293 61.025Z" fill="black"/>
<path d="M49.58 18C48.3607 18.4588 47.0424 18.5903 45.7564 18.3814C44.4705 18.1725 43.2616 17.6304 42.2502 16.8092C41.2388 15.9879 40.4602 14.9161 39.9917 13.7004C39.5232 12.4848 39.3813 11.1676 39.58 9.88C36.1734 8.88429 32.5365 9.01423 29.2097 10.2505C25.8828 11.4868 23.0436 13.7635 21.114 16.7422C19.1843 19.7209 18.2672 23.2427 18.4989 26.7842C18.7306 30.3258 20.0987 33.6981 22.4 36.4L22.7 36.75H47.3L47.6 36.4C49.7325 33.8913 51.0632 30.8004 51.4197 27.5272C51.7763 24.2539 51.1424 20.949 49.6 18.04L49.58 18ZM34 11.29H35C35.37 11.29 35.7 11.29 36 11.34V14.84H34V11.29ZM24 26.91H20.56C20.56 26.52 20.51 26.14 20.51 25.74V24.91H24V26.91ZM26.51 18.75L24 16.29C24.4433 15.7842 24.9211 15.3098 25.43 14.87L27.89 17.33L26.51 18.75ZM37.13 27.94C36.7419 28.3317 36.2533 28.6088 35.7179 28.741C35.1826 28.8731 34.6211 28.8551 34.0953 28.689C33.5695 28.5229 33.0996 28.2151 32.7373 27.7994C32.3751 27.3837 32.1344 26.8761 32.0417 26.3325C31.949 25.789 32.008 25.2303 32.2121 24.7181C32.4161 24.2058 32.7575 23.7597 33.1985 23.4287C33.6396 23.0978 34.1634 22.8948 34.7123 22.8421C35.2612 22.7894 35.814 22.889 36.31 23.13L42.22 17.32L43.63 18.73L37.71 24.54C37.9676 25.1003 38.0463 25.7263 37.9353 26.3329C37.8244 26.9395 37.5292 27.4972 37.09 27.93L37.13 27.94ZM49.48 26.94H45.92V24.94H49.45V25.77C49.45 26.05 49.47 26.52 49.44 26.91L49.48 26.94Z" fill="black"/>
<path d="M47 16C49.7614 16 52 13.7614 52 11C52 8.23858 49.7614 6 47 6C44.2386 6 42 8.23858 42 11C42 13.7614 44.2386 16 47 16Z" fill="black"/>
</svg>
